<svg xmlns="http://www.w3.org/2000/svg" xmlns:xlink="http://www.w3.org/1999/xlink" version="1.1" width="256" height="256" viewBox="0 0 256 256" xml:space="preserve">

<defs>
</defs>
<g style="stroke: none; stroke-width: 0; stroke-dasharray: none; stroke-linecap: butt; stroke-linejoin: miter; stroke-miterlimit: 10; fill: none; fill-rule: nonzero; opacity: 1;" transform="translate(1.4065934065934016 1.4065934065934016) scale(2.81 2.81)" >
	<linearGradient id="SVGID_5" gradientUnits="userSpaceOnUse" x1="28.7486" y1="81.2881" x2="28.7486" y2="7.3389">
<stop offset="0%" style="stop-color:rgb(26,190,233);stop-opacity: 1"/>
<stop offset="100%" style="stop-color:rgb(184,118,237);stop-opacity: 1"/>
</linearGradient>
<path d="M 28.749 20.106 L 28.749 20.106 c -4.792 0 -8.677 -3.885 -8.677 -8.677 V 8.677 C 20.072 3.885 23.957 0 28.749 0 h 0 c 4.792 0 8.677 3.885 8.677 8.677 v 2.752 C 37.425 16.221 33.541 20.106 28.749 20.106 z" style="stroke: none; stroke-width: 1; stroke-dasharray: none; stroke-linecap: butt; stroke-linejoin: miter; stroke-miterlimit: 10; fill: url(#SVGID_5); fill-rule: nonzero; opacity: 1;" transform=" matrix(1 0 0 1 0 0) " stroke-linecap="round" />
	<linearGradient id="SVGID_6" gradientUnits="userSpaceOnUse" x1="28.7486" y1="81.2881" x2="28.7486" y2="7.3389">
<stop offset="0%" style="stop-color:rgb(26,190,233);stop-opacity: 1"/>
<stop offset="100%" style="stop-color:rgb(184,118,237);stop-opacity: 1"/>
</linearGradient>
<path d="M 33.799 25.396 h -10.1 c -5.526 0 -10.005 4.479 -10.005 10.005 v 15.289 c 0 4.383 2.823 8.099 6.747 9.452 l 2.017 26.308 c 0.177 2.01 1.86 3.551 3.877 3.551 h 4.828 c 2.017 0 3.7 -1.541 3.877 -3.551 l 2.017 -26.308 c 3.924 -1.353 6.747 -5.068 6.747 -9.452 V 35.401 C 43.804 29.875 39.325 25.396 33.799 25.396 z" style="stroke: none; stroke-width: 1; stroke-dasharray: none; stroke-linecap: butt; stroke-linejoin: miter; stroke-miterlimit: 10; fill: url(#SVGID_6); fill-rule: nonzero; opacity: 1;" transform=" matrix(1 0 0 1 0 0) " stroke-linecap="round" />
	<linearGradient id="SVGID_7" gradientUnits="userSpaceOnUse" x1="65.3933" y1="78.3827" x2="65.3933" y2="11.8934">
<stop offset="0%" style="stop-color:rgb(26,190,233);stop-opacity: 1"/>
<stop offset="100%" style="stop-color:rgb(184,118,237);stop-opacity: 1"/>
</linearGradient>
<path d="M 54.48 14.173 v 8.472 c 0 3.681 2.995 6.677 6.677 6.677 h 8.472 c 3.682 0 6.677 -2.995 6.677 -6.677 v -8.472 c 0 -3.682 -2.995 -6.678 -6.677 -6.678 h -8.472 C 57.475 7.496 54.48 10.491 54.48 14.173 z" style="stroke: none; stroke-width: 1; stroke-dasharray: none; stroke-linecap: butt; stroke-linejoin: miter; stroke-miterlimit: 10; fill: url(#SVGID_7); fill-rule: nonzero; opacity: 1;" transform=" matrix(1 0 0 1 0 0) " stroke-linecap="round" />
	<linearGradient id="SVGID_8" gradientUnits="userSpaceOnUse" x1="65.3933" y1="78.3827" x2="65.3933" y2="11.8934">
<stop offset="0%" style="stop-color:rgb(26,190,233);stop-opacity: 1"/>
<stop offset="100%" style="stop-color:rgb(184,118,237);stop-opacity: 1"/>
</linearGradient>
<path d="M 54.48 40.764 v 8.472 c 0 3.681 2.995 6.677 6.677 6.677 h 8.473 c 3.681 0 6.677 -2.995 6.677 -6.677 v -8.472 c 0 -3.682 -2.995 -6.678 -6.677 -6.678 h -8.473 C 57.475 34.087 54.48 37.082 54.48 40.764 z" style="stroke: none; stroke-width: 1; stroke-dasharray: none; stroke-linecap: butt; stroke-linejoin: miter; stroke-miterlimit: 10; fill: url(#SVGID_8); fill-rule: nonzero; opacity: 1;" transform=" matrix(1 0 0 1 0 0) " stroke-linecap="round" />
	<linearGradient id="SVGID_9" gradientUnits="userSpaceOnUse" x1="65.3933" y1="78.3827" x2="65.3933" y2="11.8934">
<stop offset="0%" style="stop-color:rgb(26,190,233);stop-opacity: 1"/>
<stop offset="100%" style="stop-color:rgb(184,118,237);stop-opacity: 1"/>
</linearGradient>
<path d="M 54.48 67.355 v 8.472 c 0 3.681 2.995 6.677 6.677 6.677 h 8.473 c 3.681 0 6.677 -2.995 6.677 -6.677 v -8.472 c 0 -3.682 -2.995 -6.678 -6.677 -6.678 h -8.473 C 57.475 60.677 54.48 63.673 54.48 67.355 z" style="stroke: none; stroke-width: 1; stroke-dasharray: none; stroke-linecap: butt; stroke-linejoin: miter; stroke-miterlimit: 10; fill: url(#SVGID_9); fill-rule: nonzero; opacity: 1;" transform=" matrix(1 0 0 1 0 0) " stroke-linecap="round" />
	<path d="M 62.325 22.768 c 0.355 0.514 0.939 0.84 1.559 0.87 l 0.105 0.003 c 0.594 0 1.155 -0.259 1.539 -0.709 l 5.482 -6.419 v -0.001 c 0.724 -0.848 0.622 -2.127 -0.227 -2.852 c -0.847 -0.722 -2.125 -0.621 -2.852 0.226 l -3.771 4.417 l -1.182 -1.714 c -0.31 -0.446 -0.774 -0.745 -1.308 -0.841 c -0.532 -0.094 -1.067 0.021 -1.506 0.327 c -0.917 0.633 -1.149 1.896 -0.517 2.814 L 62.325 22.768 z" style="stroke: none; stroke-width: 1; stroke-dasharray: none; stroke-linecap: butt; stroke-linejoin: miter; stroke-miterlimit: 10; fill: rgb(255,255,255); fill-rule: nonzero; opacity: 1;" transform=" matrix(1 0 0 1 0 0) " stroke-linecap="round" />
	<path d="M 62.324 49.357 c 0.354 0.513 0.938 0.839 1.56 0.872 l 0.105 0.002 c 0.593 0 1.154 -0.259 1.539 -0.709 l 5.482 -6.418 v 0 c 0.351 -0.411 0.521 -0.934 0.478 -1.472 c -0.043 -0.539 -0.293 -1.029 -0.703 -1.378 c -0.846 -0.723 -2.124 -0.623 -2.853 0.224 l -3.771 4.417 l -1.182 -1.714 c -0.308 -0.443 -0.77 -0.742 -1.299 -0.839 c -0.535 -0.101 -1.072 0.018 -1.515 0.325 c -0.917 0.633 -1.149 1.896 -0.517 2.814 L 62.324 49.357 z" style="stroke: none; stroke-width: 1; stroke-dasharray: none; stroke-linecap: butt; stroke-linejoin: miter; stroke-miterlimit: 10; fill: rgb(255,255,255); fill-rule: nonzero; opacity: 1;" transform=" matrix(1 0 0 1 0 0) " stroke-linecap="round" />
	<path d="M 67.932 67.068 l -3.772 4.417 l -1.181 -1.712 c -0.308 -0.444 -0.769 -0.742 -1.3 -0.84 c -0.53 -0.101 -1.07 0.018 -1.513 0.324 c -0.444 0.307 -0.743 0.768 -0.842 1.3 c -0.098 0.531 0.018 1.069 0.324 1.514 l 2.675 3.877 c 0.354 0.513 0.938 0.839 1.56 0.872 l 0.105 0.002 c 0.593 0 1.154 -0.259 1.539 -0.709 l 5.482 -6.418 v -0.001 c 0.723 -0.847 0.621 -2.126 -0.229 -2.854 C 69.934 66.124 68.657 66.227 67.932 67.068 z" style="stroke: none; stroke-width: 1; stroke-dasharray: none; stroke-linecap: butt; stroke-linejoin: miter; stroke-miterlimit: 10; fill: rgb(255,255,255); fill-rule: nonzero; opacity: 1;" transform=" matrix(1 0 0 1 0 0) " stroke-linecap="round" />
</g>
</svg>